<svg width="88" height="75" viewBox="0 0 88 75" fill="none" xmlns="http://www.w3.org/2000/svg">
<path fill-rule="evenodd" clip-rule="evenodd" d="M53.0972 25.4956L49.1923 27.7702C46.0911 29.577 42.2591 29.583 39.1523 27.7859L35.2397 25.5235C33.1649 24.3232 32.2334 21.8192 33.0199 19.5549L33.6884 17.6309C33.9676 16.8275 34.7238 16.2878 35.5743 16.2864L52.7338 16.2596C53.5843 16.2583 54.3426 16.7956 54.6239 17.5982L55.2984 19.5201C56.0919 21.7819 55.1683 24.2888 53.0972 25.4956V25.4956ZM81.9011 2.98701C80.4922 2.42221 79.2473 1.54415 78.2401 0.441226L75.6658 8.88876C74.2615 13.4975 70.7292 17.151 66.1706 18.7101L61.3622 20.3541L59.4323 16.5636C57.723 13.2068 54.2727 11.0952 50.5052 11.1011L44.1462 11.111L37.7867 11.121C34.0197 11.1269 30.5755 13.2493 28.8768 16.6114L26.9587 20.4079L22.1452 18.7789C17.5817 17.2341 14.0381 13.5916 12.6194 8.98732L10.0187 0.547873C9.01488 1.65394 7.77276 2.53589 6.36515 3.10559L1.2132 27.7707C-1.46924 40.6089 4.49974 53.7011 15.9503 60.0967L39.3527 73.1676C42.3934 74.8659 46.0984 74.8601 49.1327 73.1523L72.4947 60.0083C83.9246 53.5769 89.8527 40.4661 87.1311 27.6364L81.9011 2.98701Z" fill="#00004D"/>
</svg>
