<svg width="161" height="40" viewBox="0 0 161 40" fill="none" xmlns="http://www.w3.org/2000/svg">
<path fill-rule="evenodd" clip-rule="evenodd" d="M145.836 35.1586C140.534 27.4798 132.715 21.896 123.732 19.3733L110.394 15.6275L104.872 6.51556L102.872 6.51431L102.869 10.2593L80.3563 31.0003L80.3558 30.9998L57.8692 10.2312L57.8716 6.48622L55.8716 6.48497L50.3379 15.59L36.9956 19.3192C28.0085 21.8306 20.183 27.4047 14.8717 35.0769L0.340602 56.0698L0.331311 70.9503L160.331 71.0502L160.341 56.1702L145.836 35.1586Z" fill="#F5F5F8"/>
<path d="M50.3376 15.5902L63.4741 42.8644L80.3565 31" stroke="#00004D" stroke-linecap="round" stroke-linejoin="round"/>
<path d="M80.3564 31.0001L97.224 42.8857L106.009 24.7036" stroke="#00004D" stroke-linecap="round" stroke-linejoin="round"/>
</svg>
