<svg width="161" height="130" viewBox="0 0 161 130" fill="none" xmlns="http://www.w3.org/2000/svg">
<path fill-rule="evenodd" clip-rule="evenodd" d="M145.835 125.159C140.534 117.48 132.715 111.896 123.732 109.373L102.867 103.514L102.876 88.5147C111.702 81.8932 117.502 71.4683 117.866 59.672C119.098 60.2163 120.459 60.5251 121.894 60.526C127.417 60.5295 131.897 56.0553 131.9 50.5323C131.904 45.0093 127.429 40.5295 121.907 40.526C120.483 40.5252 119.132 40.8258 117.906 41.3611L117.908 38.5236C117.921 17.8126 101.142 1.01307 80.4314 1.00014L80.4309 1.00014C59.7204 0.987213 42.9209 17.7657 42.908 38.4767L42.9062 41.3142C41.6805 40.7775 40.3297 40.4751 38.9067 40.4742C33.3837 40.4708 28.9039 44.945 28.9005 50.468C28.897 55.991 33.3712 60.4708 38.8942 60.4742C40.3287 60.4751 41.6899 60.1685 42.9238 59.6252C43.2719 71.422 49.0589 81.8541 57.8763 88.4866L57.8669 103.486L36.9952 109.319C28.0087 111.83 20.1827 117.405 14.8719 125.077L0.34079 146.07L0.331499 160.95L160.331 161.05L160.341 146.17L145.835 125.159Z" fill="#E9ADA1"/>
<path fill-rule="evenodd" clip-rule="evenodd" d="M80.3716 95.9999C75.7476 95.997 71.3222 95.1522 67.2331 93.6192C73.0478 97.3388 79.9545 99.4996 87.3695 99.5043C92.8995 99.5077 98.1447 98.3045 102.872 96.1589L102.876 88.5144C96.6059 93.2185 88.8141 96.0052 80.3716 95.9999Z" fill="#DB8B79"/>
<path d="M44.2038 51.9368C44.3316 51.4724 44.4004 50.9829 44.4007 50.4779C44.4026 47.4404 41.9417 44.9764 38.9042 44.9745C38.1447 44.974 37.4211 45.1276 36.7629 45.4051" stroke="#00004D" stroke-linecap="round" stroke-linejoin="round"/>
<path d="M116.595 51.9819C116.468 51.5174 116.4 51.0278 116.401 50.5228C116.403 47.4853 118.867 45.0244 121.904 45.0263C122.663 45.0267 123.386 45.1812 124.045 45.4596" stroke="#00004D" stroke-linecap="round" stroke-linejoin="round"/>
</svg>
