<svg width="40" height="31" viewBox="0 0 40 31" fill="none" xmlns="http://www.w3.org/2000/svg">
<path fill-rule="evenodd" clip-rule="evenodd" d="M32.4998 5.00452C32.4998 11.9085 26.9033 17.5045 19.9998 17.5045C13.0963 17.5045 7.49976 11.9085 7.49976 5.00452H32.4998Z" fill="#AE1328"/>
<path fill-rule="evenodd" clip-rule="evenodd" d="M26.9954 15.3649C25.1919 13.5979 22.7244 12.5044 19.9999 12.5044C17.2754 12.5044 14.8079 13.5979 13.0044 15.3649C15.0009 16.7159 17.4079 17.5044 19.9999 17.5044C22.5914 17.5044 24.9994 16.7159 26.9954 15.3649Z" fill="#FB344F"/>
<path fill-rule="evenodd" clip-rule="evenodd" d="M27.4998 9.00452H12.4998C11.1188 9.00452 9.99976 7.88552 9.99976 6.50452V5.00452H29.9998V6.50452C29.9998 7.88552 28.8808 9.00452 27.4998 9.00452Z" fill="white"/>
</svg>
