<svg width="81" height="46" viewBox="0 0 81 46" fill="none" xmlns="http://www.w3.org/2000/svg">
<path fill-rule="evenodd" clip-rule="evenodd" d="M75.0859 45.1177C76.4809 43.9349 78.2039 43.1349 80.0984 42.8598L80.1102 40.7354C80.1525 33.0625 78.0281 25.8846 74.3158 19.7755C70.8755 14.114 66.0666 9.37933 60.3491 6.01771C54.4726 2.5622 47.6396 0.555437 40.3317 0.515081C33.0243 0.474727 26.169 2.4059 20.2547 5.79629C14.5004 9.09456 9.63947 13.7758 6.13686 19.399C2.3578 25.4668 0.153757 32.6207 0.111384 40.2936L0.0996521 42.418C1.99105 42.714 3.70505 43.533 5.08695 44.7311L5.11131 40.3212C5.18568 26.8539 12.8611 15.2121 24.0442 9.42127C28.392 13.1848 34.0479 15.4806 40.2488 15.5149C46.4497 15.5491 52.1307 13.3159 56.5197 9.60111C67.6382 15.5151 75.1846 27.2405 75.1102 40.7077L75.0859 45.1177Z" fill="#F0F0F4"/>
</svg>
