<svg width="82" height="41" viewBox="0 0 82 41" fill="none" xmlns="http://www.w3.org/2000/svg">
<path fill-rule="evenodd" clip-rule="evenodd" d="M70.0277 20.6745C69.9926 27.0254 64.8153 32.1459 58.4644 32.1108C52.1135 32.0758 46.993 26.8984 47.028 20.5475C47.0631 14.1961 52.2405 9.0761 58.5914 9.11117C64.9423 9.14625 70.0628 14.3231 70.0277 20.6745Z" stroke="#00004D" stroke-width="2" stroke-linecap="round" stroke-linejoin="round"/>
<path fill-rule="evenodd" clip-rule="evenodd" d="M12.0285 20.3542C11.9935 26.7051 17.1134 31.8825 23.4649 31.9175C29.8163 31.9526 34.9931 26.8321 35.0282 20.4812C35.0633 14.1298 29.9433 8.95295 23.5919 8.91788C17.2405 8.8828 12.0636 14.0028 12.0285 20.3542Z" stroke="#00004D" stroke-width="2" stroke-linecap="round" stroke-linejoin="round"/>
<path d="M34.3376 16.4862C35.2111 13.5949 37.9037 11.4968 41.0776 11.5143C44.2521 11.5318 46.9209 13.6596 47.7629 16.5603" stroke="#00004D" stroke-width="2" stroke-linecap="round" stroke-linejoin="round"/>
</svg>
