<svg width="162" height="147" viewBox="0 0 162 147" fill="none" xmlns="http://www.w3.org/2000/svg">
<path fill-rule="evenodd" clip-rule="evenodd" d="M146.113 125.492C140.85 117.788 133.058 112.166 124.087 109.599L103.251 103.638L103.334 88.6386C112.193 82.0604 118.044 71.664 118.465 59.8697C119.695 60.42 121.054 60.7355 122.489 60.7434C128.011 60.7739 132.513 56.3217 132.544 50.7988C132.574 45.2759 128.122 40.7742 122.599 40.7437C121.176 40.7359 119.823 41.0299 118.595 41.5591L118.61 38.7217C118.725 18.011 102.028 1.12952 81.3181 1.01515L81.3176 1.01514C60.6074 0.900775 43.726 17.5968 43.6116 38.3075L43.5959 41.1449C42.3729 40.6022 41.0236 40.2932 39.6006 40.2854C34.0777 40.2549 29.576 44.7071 29.5455 50.23C29.515 55.7529 33.9673 60.2546 39.4902 60.2851C40.9247 60.293 42.2873 59.993 43.5238 59.4558C43.8142 71.2541 49.55 81.7144 58.3348 88.3901L58.2519 103.389L37.352 109.12C28.3532 111.587 20.5 117.123 15.1517 124.769L0.517943 145.691L0.435771 160.571L160.433 161.454L160.516 146.575L146.113 125.492Z" fill="#F5CDD3"/>
<path fill-rule="evenodd" clip-rule="evenodd" d="M80.793 96.0135C76.169 95.9879 71.7478 95.1215 67.6663 93.5685C73.4627 97.3165 80.3586 99.5111 87.7735 99.5521C93.3034 99.5826 98.5545 98.4051 103.292 96.2827L103.334 88.6383C97.0406 93.3117 89.2353 96.0601 80.793 96.0135Z" fill="#F48C9D"/>
<path d="M44.8415 51.7737C44.9716 51.31 45.0428 50.8208 45.0456 50.3159C45.0623 47.2784 42.6135 44.8023 39.576 44.7856C38.8165 44.7814 38.0922 44.9314 37.4327 45.2057" stroke="#00004D" stroke-linecap="round" stroke-linejoin="round"/>
<path d="M117.232 52.1735C117.107 51.7083 117.042 51.2184 117.044 50.7134C117.061 47.676 119.537 45.2271 122.575 45.2439C123.334 45.2481 124.056 45.4061 124.713 45.6877" stroke="#00004D" stroke-linecap="round" stroke-linejoin="round"/>
</svg>
