<svg width="118" height="146" viewBox="0 0 118 146" fill="none" xmlns="http://www.w3.org/2000/svg">
<path fill-rule="evenodd" clip-rule="evenodd" d="M98.8202 34.3993H19.1797L29.1797 10.9998H88.8202L98.8202 34.3993Z" fill="#000066"/>
<path fill-rule="evenodd" clip-rule="evenodd" d="M94 61.9999C94 81.3294 78.33 96.9999 59 96.9999C39.67 96.9999 24 81.3294 24 61.9999V46.9994C24 27.6699 39.67 11.9999 59 11.9999C78.33 11.9999 94 27.6699 94 46.9994V61.9999ZM110.5 51.4999C110.5 28.8364 92.468 -0.00012207 59 -0.00012207C25.532 -0.00012207 7.49997 28.8364 7.49997 51.4999C7.49997 103.61 0.209473 118.65 0.209473 118.65L10.746 125.66C27.4615 136.782 48.478 136.854 64.9085 127.316L77.7955 145.261L117.863 118.713C117.863 118.713 110.5 108.227 110.5 51.4999V51.4999Z" fill="#FFCA00"/>
<path d="M87.2842 99.9505C80.0457 107.19 70.0457 111.667 59.0002 111.667C36.9087 111.667 19.0002 93.7575 19.0002 71.6665V52.833C19.0002 30.7415 36.9087 12.833 59.0002 12.833" stroke="#00004D" stroke-linecap="round" stroke-linejoin="round"/>
<path d="M64.9087 127.316C70.4332 124.109 75.4397 119.816 79.5887 114.491" stroke="#00004D" stroke-linecap="round" stroke-linejoin="round"/>
</svg>
