<svg width="101" height="101" viewBox="0 0 101 101" fill="none" xmlns="http://www.w3.org/2000/svg">
<path fill-rule="evenodd" clip-rule="evenodd" d="M39.2292 24.7282C34.0124 33.611 26.1248 40.7247 16.6784 45.0011C15.0125 43.2856 12.7366 42.1742 10.2004 42L11.5263 33.6864L11.5263 33.6859C12.3712 28.3867 14.2581 23.4365 16.9671 19.047C19.4692 14.9947 22.6775 11.4295 26.4154 8.5091C27.8766 7.36728 29.4166 6.32158 31.03 5.38748C35.5599 2.76724 40.6491 1.00783 46.0751 0.334921C47.7164 0.131369 49.388 0.0228628 51.0855 0.0253951C58.393 0.0362964 65.2346 2.01601 71.125 5.4473C76.8565 8.78635 81.684 13.5016 85.1471 19.1487C87.843 23.5463 89.7151 28.5021 90.5442 33.8043L91.8438 42.1117C89.192 42.2873 86.8272 43.5003 85.1385 45.3442C67.3726 43.9407 51.3518 36.3523 39.2292 24.7282ZM28.4514 89.9796C19.6478 83.338 13.8614 72.9113 13.5235 61.1178C12.2891 61.66 10.9277 61.9655 9.49319 61.9633C8.65419 61.9621 7.84486 61.8469 7.06666 61.6507L0.936308 100.089L28.4363 100.13L28.4514 89.9796ZM92.4931 62.0874C91.0586 62.0852 89.6976 61.7757 88.4649 61.2299C88.0918 73.0223 82.2747 83.4317 73.4514 90.0465L73.4362 100.197L100.936 100.238L94.9206 61.782C94.1418 61.9753 93.3321 62.0886 92.4931 62.0874Z" fill="#00004D"/>
</svg>
