<svg width="162" height="146" viewBox="0 0 162 146" fill="none" xmlns="http://www.w3.org/2000/svg">
<path fill-rule="evenodd" clip-rule="evenodd" d="M146.378 124.741C141.084 117.057 133.27 111.467 124.289 108.936L103.429 103.059L103.451 88.0597C112.283 81.4459 118.092 71.026 118.466 59.2301C119.698 59.7754 121.058 60.0854 122.493 60.0876C128.016 60.0958 132.5 55.6255 132.508 50.1025C132.517 44.5795 128.046 40.0958 122.523 40.0876C121.1 40.0855 119.748 40.385 118.522 40.9191L118.526 38.0816C118.557 17.3707 101.793 0.556642 81.0822 0.525746L81.0817 0.525745C60.3712 0.494849 43.5572 17.2588 43.5263 37.9698L43.5221 40.8073C42.2969 40.2694 40.9463 39.9659 39.5233 39.9638C34.0003 39.9556 29.5166 44.4259 29.5084 49.9489C29.5002 55.4719 33.9705 59.9555 39.4935 59.9638C40.928 59.9659 42.2894 59.6604 43.5237 59.1183C43.8616 70.9153 49.6396 81.3524 58.4512 87.9926L58.4288 102.992L37.5521 108.807C28.5634 111.311 20.7325 116.878 15.4151 124.545L0.865787 145.526L0.843589 160.406L160.843 160.645L160.866 145.765L146.378 124.741Z" fill="#B5683C"/>
<path fill-rule="evenodd" clip-rule="evenodd" d="M80.9401 95.5254C76.3161 95.5185 71.8913 94.6699 67.8036 93.1333C73.6151 96.858 80.5199 99.0248 87.9348 99.0359C93.4648 99.0441 98.7111 97.8455 103.44 95.704L103.451 88.0595C97.1767 92.7582 89.3826 95.538 80.9401 95.5254Z" fill="#A3420B"/>
<path d="M44.8106 51.4309C44.9388 50.9666 45.008 50.4772 45.0088 49.9722C45.0133 46.9347 42.5545 44.4686 39.517 44.464C38.7575 44.4629 38.0337 44.6158 37.3753 44.8928" stroke="#00004D" stroke-linecap="round" stroke-linejoin="round"/>
<path d="M117.202 51.5389C117.075 51.0742 117.008 50.5846 117.008 50.0796C117.013 47.0421 119.479 44.5833 122.517 44.5879C123.276 44.589 123.999 44.7441 124.657 45.023" stroke="#00004D" stroke-linecap="round" stroke-linejoin="round"/>
</svg>
