<svg width="51" height="21" viewBox="0 0 51 21" fill="none" xmlns="http://www.w3.org/2000/svg">
<path fill-rule="evenodd" clip-rule="evenodd" d="M41.7698 12.2112C43.0403 12.2093 44.2179 12.6049 45.1884 13.2774C45.555 12.6723 45.7694 11.965 45.7682 11.205C45.7648 8.99599 43.971 7.20779 41.762 7.21125C39.553 7.2147 37.7648 9.0085 37.7682 11.2175C37.7694 11.9775 37.986 12.6842 38.3545 13.2881C39.3229 12.6126 40.4993 12.2132 41.7698 12.2112" fill="#00004D"/>
<path fill-rule="evenodd" clip-rule="evenodd" d="M8.76977 12.2628C10.0403 12.2609 11.2179 12.6565 12.1884 13.329C12.555 12.7239 12.7694 12.0166 12.7682 11.2566C12.7648 9.0476 10.971 7.2594 8.76196 7.26285C6.55296 7.2663 4.76476 9.0601 4.76822 11.2691C4.7694 12.0291 4.98601 12.7358 5.35445 13.3397C6.3229 12.6642 7.49928 12.2648 8.76977 12.2628" fill="#00004D"/>
</svg>
