<svg width="41" height="31" viewBox="0 0 41 31" fill="none" xmlns="http://www.w3.org/2000/svg">
<path fill-rule="evenodd" clip-rule="evenodd" d="M32.7993 5.2577C32.8101 12.1617 27.2223 17.7664 20.3188 17.7772C13.4154 17.788 7.81011 12.2008 7.79932 5.29678L32.7993 5.2577Z" fill="#AE1328"/>
<path fill-rule="evenodd" clip-rule="evenodd" d="M27.3111 15.6266C25.5049 13.8625 23.0357 12.7728 20.3112 12.7771C17.5867 12.7813 15.1209 13.8787 13.3201 15.6485C15.3188 16.9964 17.727 17.7811 20.319 17.7771C22.9105 17.773 25.3172 16.9808 27.3111 15.6266" fill="#FB344F"/>
<path fill-rule="evenodd" clip-rule="evenodd" d="M27.8055 9.26551L12.8056 9.28896C11.4246 9.29112 10.3038 8.17387 10.3017 6.79288L10.2993 5.29288L30.2993 5.26161L30.3016 6.76161C30.3038 8.14261 29.1865 9.26336 27.8055 9.26551" fill="white"/>
</svg>
