<svg width="161" height="146" viewBox="0 0 161 146" fill="none" xmlns="http://www.w3.org/2000/svg">
<path fill-rule="evenodd" clip-rule="evenodd" d="M145.863 124.288C140.545 116.621 132.713 111.054 123.724 108.551L102.847 102.738L102.823 87.7383C111.635 81.0975 117.412 70.66 117.75 58.8629C118.984 59.4045 120.345 59.7104 121.78 59.7081C127.303 59.6995 131.773 55.2155 131.764 49.6925C131.756 44.1695 127.271 39.6995 121.749 39.7082C120.325 39.7104 118.975 40.014 117.75 40.5519L117.746 37.7144C117.713 17.0034 100.898 0.240698 80.1872 0.273073L80.1867 0.273074C59.4762 0.305449 42.7135 17.1207 42.7458 37.8316L42.7503 40.6691C41.5234 40.1351 40.172 39.8357 38.749 39.8379C33.226 39.8465 28.756 44.3305 28.7646 49.8535C28.7732 55.3765 33.2572 59.8465 38.7802 59.8379C40.2147 59.8356 41.5752 59.526 42.8079 58.9801C43.1818 70.776 48.9916 81.1954 57.8235 87.8086L57.8469 102.808L36.9881 108.687C28.007 111.218 20.1933 116.809 14.8993 124.493L0.414113 145.518L0.437374 160.398L160.437 160.148L160.414 145.268L145.863 124.288Z" fill="#B5683C"/>
<path fill-rule="evenodd" clip-rule="evenodd" d="M80.3353 95.2727C75.7113 95.28 71.284 94.4449 67.1916 92.9208C73.0144 96.6277 79.9258 98.7734 87.3408 98.7618C92.8708 98.7532 98.1134 97.5385 102.836 95.3826L102.824 87.7381C96.5634 92.4559 88.7778 95.2595 80.3353 95.2727Z" fill="#A3420B"/>
<path d="M44.0711 51.2888C44.1979 50.8241 44.2656 50.3345 44.2648 49.8295C44.2601 46.792 41.7937 44.3334 38.7562 44.3381C37.9967 44.3393 37.2735 44.4945 36.6159 44.7735" stroke="#00004D" stroke-width="2" stroke-linecap="round" stroke-linejoin="round"/>
<path d="M116.462 51.1757C116.334 50.7114 116.265 50.222 116.265 49.717C116.26 46.6795 118.719 44.2132 121.756 44.2084C122.515 44.2072 123.239 44.3601 123.898 44.6371" stroke="#00004D" stroke-width="2" stroke-linecap="round" stroke-linejoin="round"/>
</svg>
