<svg width="104" height="74" viewBox="0 0 104 74" fill="none" xmlns="http://www.w3.org/2000/svg">
<path fill-rule="evenodd" clip-rule="evenodd" d="M52.2301 37.9466L78.8307 53.3735C85.6004 57.2994 89.3442 64.5281 89.3564 72.3536L89.358 73.3541C97.0895 73.342 103.776 67.0635 103.764 59.3315L103.741 45.0286C103.726 35.5596 99.3269 26.6304 91.8264 20.8497L76.6536 9.15486C62.2267 -1.9651 42.1087 -1.93366 27.7167 9.23136L12.5805 20.9735C5.09805 26.7777 0.726526 35.7206 0.741328 45.1896L0.763687 59.4926C0.775774 67.2245 7.46307 73.4821 15.1951 73.47L15.1935 72.4695C15.1813 64.644 18.9204 57.4037 25.6778 53.4566L52.2301 37.9466Z" fill="#F5F5F8"/>
<path d="M52.2301 37.9466L81.5898 20.7967" stroke="#00004D" stroke-linecap="round" stroke-linejoin="round"/>
<path d="M44.9627 17.455C44.9627 17.455 9.83594 47.3894 5.08083 51.4804C2.60965 53.6062 1.25836 55.9799 1.26334 59.1659" stroke="#00004D" stroke-linecap="round" stroke-linejoin="round"/>
<path d="M70.8279 27.0835C70.8279 27.0835 94.6534 47.2568 99.4213 51.3329C101.9 53.451 103.258 55.8204 103.263 59.0064" stroke="#00004D" stroke-linecap="round" stroke-linejoin="round"/>
</svg>
